<?xml version="1.0" standalone="no"?><!DOCTYPE svg PUBLIC "-//W3C//DTD SVG 1.1//EN" "http://www.w3.org/Graphics/SVG/1.1/DTD/svg11.dtd"><svg t="1626258518065" class="icon" viewBox="0 0 1024 1024" version="1.1" xmlns="http://www.w3.org/2000/svg" p-id="12028" xmlns:xlink="http://www.w3.org/1999/xlink" width="300" height="300"><defs><style type="text/css"></style></defs><path d="M521.7792 49.7152a443.0848 443.0848 0 0 1 443.0848 443.136v40.2432a443.0848 443.0848 0 1 1-886.1696 0v-40.2432A443.0848 443.0848 0 0 1 521.728 49.664z" fill="#000D29" p-id="12029"></path><path d="M577.8432 29.9008a23.1424 23.1424 0 1 1-5.5296 46.0288 424.448 424.448 0 0 0-50.5344-3.072 23.1424 23.1424 0 1 1 0-46.2848c18.8416 0 37.5296 1.1264 56.064 3.328z m135.2704 37.632a23.1424 23.1424 0 1 1-19.0464 42.1888 416.768 416.768 0 0 0-47.2576-17.92 23.1424 23.1424 0 0 1 13.7728-44.2368c17.92 5.632 35.4304 12.288 52.5312 19.968z m120.32 78.5408a23.1424 23.1424 0 0 1-30.9248 34.4064 421.9904 421.9904 0 0 0-39.5776-31.488 23.1424 23.1424 0 0 1 26.624-37.888c15.36 10.752 30.0032 22.4256 43.9296 34.9696z m88.4736 107.264a23.1424 23.1424 0 1 1-39.7312 23.808 420.864 420.864 0 0 0-28.5696-41.728 23.1424 23.1424 0 0 1 36.608-28.416c11.4688 14.848 22.016 30.2592 31.6928 46.336z m54.272 134.5024a23.1424 23.1424 0 0 1-45.1584 10.3936 416.512 416.512 0 0 0-14.336-48.4864 23.1424 23.1424 0 1 1 43.5712-15.7696c6.4 17.5616 11.7248 35.584 15.872 53.8624z m11.8784 133.7856a23.1424 23.1424 0 1 1-46.336 0v-29.2352c0-7.7824-0.2048-15.5648-0.6656-23.296a23.1424 23.1424 0 0 1 46.2336-2.56c0.512 8.5504 0.768 17.152 0.768 25.856v29.2352z m-17.4592 138.2912a23.1424 23.1424 0 1 1-44.5952-12.5952c4.608-16.1792 8.192-32.6656 10.752-49.408a23.1424 23.1424 0 0 1 45.7728 7.1168c-2.8672 18.5856-6.8608 36.864-11.9296 54.8864z m-58.88 128.8704a23.1424 23.1424 0 1 1-38.7072-25.3952c9.2672-14.1312 17.664-28.7744 25.1904-43.8784a23.1424 23.1424 0 0 1 41.472 20.5824 465.7152 465.7152 0 0 1-27.9552 48.6912z m-93.4912 104.2432a23.1424 23.1424 0 0 1-29.4912-35.7376c13.056-10.752 25.3952-22.272 37.0688-34.4576a23.1424 23.1424 0 1 1 33.4848 31.9488c-12.9024 13.568-26.624 26.3168-41.0624 38.2464z m-123.5456 73.216a23.1424 23.1424 0 0 1-17.2032-43.008c15.6672-6.2464 30.9248-13.4656 45.7216-21.504a23.1424 23.1424 0 0 1 22.272 40.6016c-16.4352 8.96-33.3824 16.9984-50.7904 23.9104z m-133.4272 31.488a23.1424 23.1424 0 0 1-3.8912-46.1824c16.896-1.3824 33.5872-3.84 50.0736-7.2192a23.1424 23.1424 0 0 1 9.3696 45.3632c-18.2784 3.7888-36.864 6.4512-55.552 8.0384z m-141.1072-9.472a23.1424 23.1424 0 1 1 10.0352-45.2096c16.384 3.6352 33.0752 6.2976 49.92 7.936a23.1424 23.1424 0 0 1-4.5056 46.08 465.2544 465.2544 0 0 1-55.4496-8.8064zM288.6656 936.96a23.1424 23.1424 0 1 1 23.1936-40.1408c14.592 8.448 29.696 16.0256 45.2096 22.6304a23.1424 23.1424 0 0 1-18.176 42.6496 464.64 464.64 0 0 1-50.2272-25.1392z m-109.568-87.7056a23.1424 23.1424 0 0 1 34.048-31.3856c11.4688 12.3904 23.6544 24.064 36.5056 35.0208a23.1424 23.1424 0 1 1-30.0544 35.328 468.992 468.992 0 0 1-40.448-38.912z m-79.872-118.784a23.1424 23.1424 0 0 1 41.984-19.6096c7.168 15.2576 15.2576 30.1056 24.1664 44.3904a23.1424 23.1424 0 1 1-39.2704 24.576 465.2544 465.2544 0 0 1-26.8288-49.3568z m-39.1168-131.8912a23.1424 23.1424 0 1 1 45.8752-6.4512c2.3552 16.7424 5.6832 33.28 10.0352 49.5104a23.1424 23.1424 0 0 1-44.7488 11.9808 463.9744 463.9744 0 0 1-11.1616-55.04z m-3.328-139.9808a23.1424 23.1424 0 0 1 46.1824 3.3792c-0.7168 10.24-1.1264 20.48-1.1264 30.8224v20.8384a23.1424 23.1424 0 1 1-46.2848 0v-20.8384c0-11.4688 0.4096-22.8352 1.2288-34.2016z m31.0272-136.704a23.1424 23.1424 0 1 1 43.1104 16.9984c-6.144 15.6672-11.3664 31.744-15.616 48.128a23.1424 23.1424 0 0 1-44.8512-11.6736 462.848 462.848 0 0 1 17.408-53.4016z m72.2944-123.392a23.1424 23.1424 0 1 1 35.8912 29.2864c-10.6496 13.056-20.48 26.7776-29.5424 41.0624a23.1424 23.1424 0 1 1-39.1168-24.7296c9.984-15.872 20.9408-31.0784 32.768-45.568z m103.2192-93.7984a23.1424 23.1424 0 1 1 25.7024 38.5024 421.6832 421.6832 0 0 0-40.3456 30.5664 23.1424 23.1424 0 1 1-30.1056-35.1744c14.1824-12.1856 29.184-23.552 44.7488-33.8944zM394.5472 44.1856a23.1424 23.1424 0 0 1 12.5952 44.544c-16.2304 4.608-32.2048 10.1888-47.7184 16.6912a23.1424 23.1424 0 1 1-17.92-42.7008A462.8992 462.8992 0 0 1 394.5472 44.1856z m126.3616-17.6128a23.1424 23.1424 0 0 1 0.1024 46.336 424.96 424.96 0 0 0-43.008 2.2528 23.1424 23.1424 0 0 1-4.8128-46.08c15.8208-1.6384 31.744-2.4576 47.7184-2.5088zM363.5712 528.384l-54.4256-11.2128v244.1216l54.4256-20.1728v-85.1456H451.584l48.128-69.376-62.7712-35.7888-16.7424 53.76H363.52V528.384z m457.5744-12.5952L435.5584 249.2928H389.12L325.9392 355.072v35.9936l351.8976 227.328h29.5424v-2.2528l113.7664-100.352zM357.4272 427.8784l-31.488 36.608 349.7984 231.3216h31.4368l16.7424-18.3296 16.7424-52.6848s-46.08 36.608-48.1792 36.608c-18.7904-13.6704-33.536-20.5824-33.536-20.5824L357.376 427.8784z" fill="#00A0FF" p-id="12030"></path></svg>