<?xml version="1.0" standalone="no"?><!DOCTYPE svg PUBLIC "-//W3C//DTD SVG 1.1//EN" "http://www.w3.org/Graphics/SVG/1.1/DTD/svg11.dtd"><svg t="1583467122765" class="icon" viewBox="0 0 1024 1024" version="1.1" xmlns="http://www.w3.org/2000/svg" p-id="3603" xmlns:xlink="http://www.w3.org/1999/xlink" width="200" height="200"><defs><style type="text/css"></style></defs><path d="M579.463529 206.004706c-30.117647-146.974118-60.235294-162.635294-60.235294-162.635294-4.818824-4.818824-10.842353-4.818824-15.661176 0 0 0-30.117647 15.661176-60.235294 162.635294 0 0-19.275294 102.4-19.275294 185.524706V554.164706c0 45.778824 174.682353 40.96 174.682353 3.614118V391.529412c1.204706-83.124706-19.275294-185.524706-19.275295-185.524706zM566.211765 310.814118c0 6.023529-1.204706 4.818824-6.02353 6.023529h-10.842353s-14.456471-178.296471-27.708235-233.712941c0 0 48.188235 121.675294 44.574118 227.689412zM454.174118 836.065882l7.228235-209.618823c-6.023529-2.409412-10.842353-4.818824-15.661177-7.228235l8.432942 216.847058zM431.284706 748.122353l4.818823-136.131765c-3.614118-3.614118-7.228235-7.228235-9.637647-12.047059l4.818824 148.178824zM483.087059 895.096471l9.637647-261.421177c-6.023529 0-12.047059-1.204706-16.865882-2.409412l7.228235 263.830589zM573.44 832.451765l7.228235-215.642353c-3.614118 3.614118-8.432941 6.023529-14.45647 8.432941l7.228235 207.209412zM503.567059 634.88l9.637647 350.569412 9.637647-350.569412c-6.023529 0-13.251765 1.204706-19.275294 0zM592.715294 752.941176l4.818824-149.383529c-2.409412 3.614118-6.023529 6.023529-9.637647 9.637647l4.818823 139.745882zM544.527059 890.277647l9.637647-260.216471-18.070588 3.614118 8.432941 256.602353z" p-id="3604" fill="#d81e06"></path></svg>