<svg xmlns="http://www.w3.org/2000/svg" viewBox="0 0 50 50" fill="#37474f">
		<path d="M25,3C12.87,3,3,12.87,3,25s9.87,22,22,22s22-9.87,22-22S37.13,3,25,3z M33.71,32.29c0.39,0.39,0.39,1.03,0,1.42 C33.51,33.9,33.26,34,33,34s-0.51-0.1-0.71-0.29L25,26.42l-7.29,7.29C17.51,33.9,17.26,34,17,34s-0.51-0.1-0.71-0.29 c-0.39-0.39-0.39-1.03,0-1.42L23.58,25l-7.29-7.29c-0.39-0.39-0.39-1.03,0-1.42c0.39-0.39,1.03-0.39,1.42,0L25,23.58l7.29-7.29 c0.39-0.39,1.03-0.39,1.42,0c0.39,0.39,0.39,1.03,0,1.42L26.42,25L33.71,32.29z"></path>
</svg>